<?xml version="1.0" encoding="utf-8"?>
<svg viewBox="0 0 1024 1024" fill="#319795" xmlns="http://www.w3.org/2000/svg" xmlns:bx="https://boxy-svg.com">
  <rect width="1024" height="1024" style=""/>
  <g transform="matrix(0.726501, 0, 0, 0.726501, 140.031235, 140.031799)" bx:origin="0.566667 0.499982">
    <g>
      <path d="M 834.1 469.549 C 814.686 425.855 786.464 386.637 751.2 354.349 L 722.1 327.649 C 717.821 323.831 711.039 325.553 709.1 330.949 L 696.1 368.249 C 688 391.649 673.1 415.549 652 439.049 C 650.6 440.549 649 440.949 647.9 441.049 C 646.8 441.149 645.1 440.949 643.6 439.549 C 642.2 438.349 641.5 436.549 641.6 434.749 C 645.3 374.549 627.3 306.649 587.9 232.749 C 555.3 171.349 510 123.449 453.4 90.049 L 412.1 65.749 C 406.7 62.549 399.8 66.749 400.1 73.049 L 402.3 121.049 C 403.8 153.849 400 182.849 391 206.949 C 380 236.449 364.2 263.849 344 288.449 C 329.942 305.545 314.009 321.009 296.5 334.549 C 254.33 366.966 220.041 408.502 196.2 456.049 C 172.417 504.01 160.029 556.815 160 610.349 C 160 657.549 169.3 703.249 187.7 746.349 C 205.466 787.846 231.105 825.506 263.2 857.249 C 295.6 889.249 333.2 914.449 375.1 931.949 C 418.5 950.149 464.5 959.349 512 959.349 C 559.5 959.349 605.5 950.149 648.9 932.049 C 690.696 914.652 728.704 889.279 760.8 857.349 C 793.2 825.349 818.6 787.949 836.3 746.449 C 854.672 703.467 864.097 657.193 864 610.449 C 864 561.649 854 514.249 834.1 469.549 Z" style="fill: rgb(255, 255, 255);"/>
    </g>
  </g>
</svg>